<svg xmlns="http://www.w3.org/2000/svg" width="512" height="512" viewBox="0 0 512 512" version="1.1"><path d="M 211 140.007 C 184.818 141.359, 154.159 144.015, 146 145.639 C 129.026 149.018, 112.137 160.739, 106.064 173.354 C 102.967 179.788, 100.369 193.523, 97.809 217 C 96.186 231.880, 96.186 280.120, 97.809 295 C 100.369 318.477, 102.967 332.212, 106.064 338.646 C 110.140 347.113, 119.530 355.755, 130.263 360.917 C 142.294 366.705, 148.908 367.754, 195 371.184 C 217.170 372.834, 293.373 372.815, 317 371.154 C 342.674 369.348, 362.909 367.294, 368.649 365.911 C 383.305 362.379, 399.391 351.047, 405.386 340.032 C 411.394 328.994, 415.418 295.287, 415.418 256 C 415.418 217.039, 411.388 182.995, 405.493 172.165 C 402.074 165.882, 394.151 158.106, 386.500 153.523 C 374.154 146.128, 363.995 144.256, 318.500 140.997 C 298.442 139.560, 231.589 138.944, 211 140.007 M 218 256 L 218 317.113 221.820 314.807 C 248.170 298.897, 316.947 256.380, 316.947 256 C 316.947 255.620, 248.170 213.103, 221.820 197.193 L 218 194.887 218 256" stroke="none" fill="#fbfbfb" fill-rule="evenodd"/><path d="M 186 1.112 C 142.440 3.133, 89.456 7.942, 77.742 10.938 C 45.778 19.113, 19.112 45.782, 10.936 77.751 C 7.800 90.011, 3.201 141.845, 1.020 189.500 C -0.277 217.835, -0.277 294.165, 1.020 322.500 C 3.201 370.155, 7.800 421.989, 10.936 434.249 C 19.575 468.028, 48.303 495.249, 82.490 502.050 C 92.443 504.030, 125.842 507.199, 162 509.593 C 193.997 511.712, 283.844 512.576, 318.500 511.097 C 369.207 508.935, 421.028 504.445, 434.211 501.074 C 468.029 492.425, 495.245 463.714, 502.050 429.510 C 505.054 414.411, 510.983 339.672, 510.995 316.750 C 510.998 311.586, 511.410 308, 512 308 C 512.654 308, 512.995 289.594, 512.985 254.750 C 512.976 225.462, 512.598 202.085, 512.144 202.801 C 511.682 203.529, 511.030 195.830, 510.661 185.301 C 509.339 147.540, 504.208 90.044, 501.064 77.751 C 492.883 45.761, 466.224 19.114, 434.211 10.926 C 421.598 7.700, 370.183 3.161, 322 1.020 C 295.984 -0.136, 211.666 -0.079, 186 1.112 M 211 140.007 C 184.818 141.359, 154.159 144.015, 146 145.639 C 129.026 149.018, 112.137 160.739, 106.064 173.354 C 102.967 179.788, 100.369 193.523, 97.809 217 C 96.186 231.880, 96.186 280.120, 97.809 295 C 100.369 318.477, 102.967 332.212, 106.064 338.646 C 110.140 347.113, 119.530 355.755, 130.263 360.917 C 142.294 366.705, 148.908 367.754, 195 371.184 C 217.170 372.834, 293.373 372.815, 317 371.154 C 342.674 369.348, 362.909 367.294, 368.649 365.911 C 383.305 362.379, 399.391 351.047, 405.386 340.032 C 411.394 328.994, 415.418 295.287, 415.418 256 C 415.418 217.039, 411.388 182.995, 405.493 172.165 C 402.074 165.882, 394.151 158.106, 386.500 153.523 C 374.154 146.128, 363.995 144.256, 318.500 140.997 C 298.442 139.560, 231.589 138.944, 211 140.007 M 218 256 L 218 317.113 221.820 314.807 C 248.170 298.897, 316.947 256.380, 316.947 256 C 316.947 255.620, 248.170 213.103, 221.820 197.193 L 218 194.887 218 256 M 0.466 256 C 0.466 285.425, 0.593 297.462, 0.749 282.750 C 0.905 268.038, 0.905 243.963, 0.749 229.250 C 0.593 214.537, 0.466 226.575, 0.466 256" stroke="none" fill="#e40404" fill-rule="evenodd"/></svg>